
						<!--?xml version="1.0" encoding="UTF-8" standalone="no" ?-->
					<svg id="thesvg" viewBox="0 0 1230 676" xmlns="http://www.w3.org/2000/svg" width="1230" height="676"><rect id="background-rect" x="0" y="0" width="1230" height="676" style="fill: rgb(247, 251, 255); stroke-width: 0;"></rect><text id="graph-title-text" x="615" y="34" style="font-family: &quot;Helvetica Neue&quot;, Helvetica, Arial, sans-serif; stroke: none; stroke-width: 0; fill: rgb(0, 0, 0); font-size: 24px; opacity: 0.1;">Title</text><g class="grid-line-group" style="display: none;"><line class="grid-line" x1="0" y1="0" x2="0" y2="676"></line><line class="grid-line" x1="30" y1="0" x2="30" y2="676"></line><line class="grid-line" x1="60" y1="0" x2="60" y2="676"></line><line class="grid-line" x1="90" y1="0" x2="90" y2="676"></line><line class="grid-line" x1="120" y1="0" x2="120" y2="676"></line><line class="grid-line" x1="150" y1="0" x2="150" y2="676"></line><line class="grid-line" x1="180" y1="0" x2="180" y2="676"></line><line class="grid-line" x1="210" y1="0" x2="210" y2="676"></line><line class="grid-line" x1="240" y1="0" x2="240" y2="676"></line><line class="grid-line" x1="270" y1="0" x2="270" y2="676"></line><line class="grid-line" x1="300" y1="0" x2="300" y2="676"></line><line class="grid-line" x1="330" y1="0" x2="330" y2="676"></line><line class="grid-line" x1="360" y1="0" x2="360" y2="676"></line><line class="grid-line" x1="390" y1="0" x2="390" y2="676"></line><line class="grid-line" x1="420" y1="0" x2="420" y2="676"></line><line class="grid-line" x1="450" y1="0" x2="450" y2="676"></line><line class="grid-line" x1="480" y1="0" x2="480" y2="676"></line><line class="grid-line" x1="510" y1="0" x2="510" y2="676"></line><line class="grid-line" x1="540" y1="0" x2="540" y2="676"></line><line class="grid-line" x1="570" y1="0" x2="570" y2="676"></line><line class="grid-line" x1="600" y1="0" x2="600" y2="676"></line><line class="grid-line" x1="630" y1="0" x2="630" y2="676"></line><line class="grid-line" x1="660" y1="0" x2="660" y2="676"></line><line class="grid-line" x1="690" y1="0" x2="690" y2="676"></line><line class="grid-line" x1="720" y1="0" x2="720" y2="676"></line><line class="grid-line" x1="750" y1="0" x2="750" y2="676"></line><line class="grid-line" x1="780" y1="0" x2="780" y2="676"></line><line class="grid-line" x1="810" y1="0" x2="810" y2="676"></line><line class="grid-line" x1="840" y1="0" x2="840" y2="676"></line><line class="grid-line" x1="870" y1="0" x2="870" y2="676"></line><line class="grid-line" x1="900" y1="0" x2="900" y2="676"></line><line class="grid-line" x1="930" y1="0" x2="930" y2="676"></line><line class="grid-line" x1="960" y1="0" x2="960" y2="676"></line><line class="grid-line" x1="990" y1="0" x2="990" y2="676"></line><line class="grid-line" x1="1020" y1="0" x2="1020" y2="676"></line><line class="grid-line" x1="1050" y1="0" x2="1050" y2="676"></line><line class="grid-line" x1="1080" y1="0" x2="1080" y2="676"></line><line class="grid-line" x1="1110" y1="0" x2="1110" y2="676"></line><line class="grid-line" x1="1140" y1="0" x2="1140" y2="676"></line><line class="grid-line" x1="1170" y1="0" x2="1170" y2="676"></line><line class="grid-line" x1="1200" y1="0" x2="1200" y2="676"></line><line class="grid-line" x1="0" y1="0" x2="1230" y2="0"></line><line class="grid-line" x1="0" y1="50" x2="1230" y2="50"></line><line class="grid-line" x1="0" y1="100" x2="1230" y2="100"></line><line class="grid-line" x1="0" y1="150" x2="1230" y2="150"></line><line class="grid-line" x1="0" y1="200" x2="1230" y2="200"></line><line class="grid-line" x1="0" y1="250" x2="1230" y2="250"></line><line class="grid-line" x1="0" y1="300" x2="1230" y2="300"></line><line class="grid-line" x1="0" y1="350" x2="1230" y2="350"></line><line class="grid-line" x1="0" y1="400" x2="1230" y2="400"></line><line class="grid-line" x1="0" y1="450" x2="1230" y2="450"></line><line class="grid-line" x1="0" y1="500" x2="1230" y2="500"></line><line class="grid-line" x1="0" y1="550" x2="1230" y2="550"></line><line class="grid-line" x1="0" y1="600" x2="1230" y2="600"></line><line class="grid-line" x1="0" y1="650" x2="1230" y2="650"></line></g><defs><marker id="arrow" orient="auto" preserveAspectRatio="none" viewBox="0 -5 10 10" refX="10" refY="0" markerWidth="10" markerHeight="10"><path d="M0,-5L10,0L0,5"></path></marker><marker class="arrow-marker" id="arrow-marker___1499349383931" orient="auto" preserveAspectRatio="none" viewBox="0 -7 14 14" refX="14" refY="0" markerWidth="14" markerHeight="14" style="fill: rgb(35, 139, 69); pointer-events: none;"><path class="marker" id="marker__1499349383931" d="M0,-7L14,0L0,7"></path></marker><marker class="arrow-marker" id="arrow-marker___1499349386668" orient="auto" preserveAspectRatio="none" viewBox="0 -7 14 14" refX="14" refY="0" markerWidth="14" markerHeight="14" style="fill: rgb(35, 139, 69); pointer-events: none;"><path class="marker" id="marker__1499349386668" d="M0,-7L14,0L0,7"></path></marker></defs><g class="main-group"><g class="group-group"><g id="group__1499349394140" class="g-group level__1"><rect class="group" x="335" y="175.8984375" width="205" height="243.75" style="fill: rgb(158, 154, 200); fill-opacity: 0.4; stroke-width: 2; stroke: rgb(63, 0, 125); cursor: pointer; stroke-dasharray: none;"></rect><text class="group-label" x="340" y="201.8984375" dy="0em" style="font-family: &quot;Helvetica Neue&quot;, Helvetica, Arial, sans-serif; fill: rgb(82, 82, 82); font-size: 20px; stroke: none; pointer-events: none; text-anchor: start;"><tspan x="339.5" y="201" dy="0em">Inputs</tspan></text><image class="group-ok" width="16" height="16" style="pointer-events: none; opacity: 0;" xmlns:xlink="http://www.w3.org/1999/xlink" xlink:href="img/ok-black.svg" x="367" y="159.8984375"></image><image class="group-settings" width="16" height="16" style="pointer-events: all; cursor: pointer; opacity: 0.02;" xmlns:xlink="http://www.w3.org/1999/xlink" xlink:href="img/settings-black.svg" x="524" y="159.8984375"></image><image class="group-edittext" width="16" height="16" style="pointer-events: all; cursor: pointer; opacity: 0.02;" xmlns:xlink="http://www.w3.org/1999/xlink" xlink:href="img/edittext-black.svg" x="508" y="159.8984375"></image><image class="group-move" width="32" height="16" style="pointer-events: all; opacity: 0.02; cursor: default;" xmlns:xlink="http://www.w3.org/1999/xlink" xlink:href="img/move-black.svg" x="335" y="159.8984375"></image></g></g><g class="node-group"><g id="node__1494592123823" class="g-node level__0" transform="translate(690,300)" style="pointer-events: bounding-box;"><rect class="node" width="155" y="-13.7734375" height="27.546875" style="stroke-width: 1.5; stroke: rgb(82, 82, 82); fill: rgb(199, 233, 192); fill-opacity: 1; cursor: pointer; stroke-dasharray: none;"></rect><text class="node-label" x="5" dy="0em" y="7.2265625" style="font-family: &quot;Helvetica Neue&quot;, Helvetica, Arial, sans-serif; fill: rgb(82, 82, 82); font-size: 14px; stroke: none; pointer-events: none; text-anchor: start;">Success! (We hope)</text><image class="node-ok" width="16" height="16" style="pointer-events: none; opacity: 1;" xmlns:xlink="http://www.w3.org/1999/xlink" xlink:href="img/ok-black.svg" x="64" y="-29.7734375"></image><image class="node-square" width="16" height="16" style="pointer-events: none; opacity: 0;" xmlns:xlink="http://www.w3.org/1999/xlink" xlink:href="img/square-black.svg" x="80" y="-29.7734375"></image><image class="node-settings" width="16" height="16" style="pointer-events: all; opacity: 0.02;" xmlns:xlink="http://www.w3.org/1999/xlink" xlink:href="img/settings-black.svg" x="139" y="-29.7734375"></image><image class="node-edittext" width="16" height="16" style="pointer-events: all; opacity: 0.02;" xmlns:xlink="http://www.w3.org/1999/xlink" xlink:href="img/edittext-black.svg" x="123" y="-29.7734375"></image><image class="node-move" width="32" height="16" style="opacity: 0.02; cursor: default;" xmlns:xlink="http://www.w3.org/1999/xlink" xlink:href="img/move-black.svg" x="32" y="-29.7734375"></image><image class="node-movebetweengroups" width="32" height="16" style="opacity: 0.02;" xmlns:xlink="http://www.w3.org/1999/xlink" xlink:href="img/movebetweengroups-black.svg" x="0" y="-29.7734375"></image><image class="node-picture" width="16" height="16" style="pointer-events: all; opacity: 0.02;" xmlns:xlink="http://www.w3.org/1999/xlink" xlink:href="img/picture-black.svg" x="105" y="-29.7734375"></image><g class="badges-bar-icons" style="display: none; pointer-events: bounding-box;"><text class="badges-bar-icon-0 badges-bar-icon" width="16" height="16" x="0" y="3.2265625" style="fill: rgb(111, 169, 49); opacity: 0.02; cursor: pointer;">▶</text><text class="badges-bar-icon-1 badges-bar-icon" width="16" height="16" x="19.2" y="3.2265625" style="fill: black; opacity: 0.02; cursor: pointer;">◨</text><text class="badges-bar-icon-2 badges-bar-icon" width="16" height="16" x="38.4" y="3.2265625" style="fill: black; opacity: 0.02; cursor: pointer;">֍</text><text class="badges-bar-icon-3 badges-bar-icon" width="16" height="16" x="57.599999999999994" y="3.2265625" style="fill: rgb(255, 0, 0); opacity: 1; cursor: pointer;">❤</text></g></g><g id="node__1499349256009" class="g-node level__0" transform="translate(360,250)" style="pointer-events: bounding-box;"><rect class="node" y="-14.8828125" style="stroke-width: 1.5; stroke: rgb(82, 82, 82); fill: rgb(199, 233, 192); fill-opacity: 1; cursor: pointer; stroke-dasharray: none;" width="155" height="29.765625"></rect><text class="node-label" x="5" dy="0em" y="6.1171875" style="font-family: &quot;Helvetica Neue&quot;, Helvetica, Arial, sans-serif; fill: rgb(82, 82, 82); font-size: 16px; stroke: none; pointer-events: none; text-anchor: start;"><tspan x="2.5" y="6" dy="0em">Resources</tspan><tspan x="2.5" y="6" dy="1.2em"></tspan></text><image class="node-ok" width="16" height="16" style="pointer-events: none; opacity: 0;" xmlns:xlink="http://www.w3.org/1999/xlink" xlink:href="img/ok-black.svg" x="64" y="-30.8828125"></image><image class="node-square" width="16" height="16" style="pointer-events: none; opacity: 0;" xmlns:xlink="http://www.w3.org/1999/xlink" xlink:href="img/square-black.svg" x="80" y="-30.8828125"></image><image class="node-settings" width="16" height="16" style="pointer-events: all; opacity: 0.02;" xmlns:xlink="http://www.w3.org/1999/xlink" xlink:href="img/settings-black.svg" x="139" y="-30.8828125"></image><image class="node-edittext" width="16" height="16" style="pointer-events: all; opacity: 0.02;" xmlns:xlink="http://www.w3.org/1999/xlink" xlink:href="img/edittext-black.svg" x="123" y="-30.8828125"></image><image class="node-move" width="32" height="16" style="opacity: 0.02; cursor: default;" xmlns:xlink="http://www.w3.org/1999/xlink" xlink:href="img/move-black.svg" x="32" y="-30.8828125"></image><image class="node-movebetweengroups" width="32" height="16" style="opacity: 0.02;" xmlns:xlink="http://www.w3.org/1999/xlink" xlink:href="img/movebetweengroups-black.svg" x="0" y="-30.8828125"></image><image class="node-picture" width="16" height="16" style="pointer-events: all; opacity: 0.02;" xmlns:xlink="http://www.w3.org/1999/xlink" xlink:href="img/picture-black.svg" x="105" y="-30.8828125"></image><g class="badges-bar-icons" style="display: none; pointer-events: bounding-box;"><text class="badges-bar-icon-0 badges-bar-icon" width="16" height="16" x="0" y="2.1171875" style="fill: rgb(111, 169, 49); opacity: 1; cursor: pointer;">▶</text><text class="badges-bar-icon-1 badges-bar-icon" width="16" height="16" x="19.2" y="2.1171875" style="fill: black; opacity: 0.02; cursor: pointer;">◨</text><text class="badges-bar-icon-2 badges-bar-icon" width="16" height="16" x="38.4" y="2.1171875" style="fill: black; opacity: 0.02; cursor: pointer;">֍</text><text class="badges-bar-icon-3 badges-bar-icon" width="16" height="16" x="57.599999999999994" y="2.1171875" style="fill: rgb(255, 0, 0); opacity: 0.02; cursor: pointer;">❤</text></g></g><g id="node__1499349256010" class="g-node level__0" transform="translate(360,350)" style="pointer-events: bounding-box;"><rect class="node" width="155" y="-14.8828125" height="29.765625" style="stroke-width: 1.5; stroke: rgb(82, 82, 82); fill: rgb(199, 233, 192); fill-opacity: 1; cursor: pointer; stroke-dasharray: none;"></rect><text class="node-label" x="5" dy="0em" y="6.1171875" style="font-family: &quot;Helvetica Neue&quot;, Helvetica, Arial, sans-serif; fill: rgb(82, 82, 82); font-size: 16px; stroke: none; pointer-events: none; text-anchor: start;">Effort</text><image class="node-ok" width="16" height="16" style="pointer-events: none; opacity: 0;" xmlns:xlink="http://www.w3.org/1999/xlink" xlink:href="img/ok-black.svg" x="64" y="-30.8828125"></image><image class="node-square" width="16" height="16" style="pointer-events: none; opacity: 0;" xmlns:xlink="http://www.w3.org/1999/xlink" xlink:href="img/square-black.svg" x="80" y="-30.8828125"></image><image class="node-settings" width="16" height="16" style="pointer-events: all; opacity: 0.02;" xmlns:xlink="http://www.w3.org/1999/xlink" xlink:href="img/settings-black.svg" x="139" y="-30.8828125"></image><image class="node-edittext" width="16" height="16" style="pointer-events: all; opacity: 0.02;" xmlns:xlink="http://www.w3.org/1999/xlink" xlink:href="img/edittext-black.svg" x="123" y="-30.8828125"></image><image class="node-move" width="32" height="16" style="opacity: 0.02; cursor: default;" xmlns:xlink="http://www.w3.org/1999/xlink" xlink:href="img/move-black.svg" x="32" y="-30.8828125"></image><image class="node-movebetweengroups" width="32" height="16" style="opacity: 0.02;" xmlns:xlink="http://www.w3.org/1999/xlink" xlink:href="img/movebetweengroups-black.svg" x="0" y="-30.8828125"></image><image class="node-picture" width="16" height="16" style="pointer-events: all; opacity: 0.02;" xmlns:xlink="http://www.w3.org/1999/xlink" xlink:href="img/picture-black.svg" x="105" y="-30.8828125"></image><g class="badges-bar-icons" style="display: none; pointer-events: bounding-box;"><text class="badges-bar-icon-0 badges-bar-icon" width="16" height="16" x="0" y="2.1171875" style="fill: rgb(111, 169, 49); opacity: 1; cursor: pointer;">▶</text><text class="badges-bar-icon-1 badges-bar-icon" width="16" height="16" x="19.2" y="2.1171875" style="fill: black; opacity: 0.02; cursor: pointer;">◨</text><text class="badges-bar-icon-2 badges-bar-icon" width="16" height="16" x="38.4" y="2.1171875" style="fill: black; opacity: 0.02; cursor: pointer;">֍</text><text class="badges-bar-icon-3 badges-bar-icon" width="16" height="16" x="57.599999999999994" y="2.1171875" style="fill: rgb(255, 0, 0); opacity: 0.02; cursor: pointer;">❤</text></g></g></g><g class="link-group"><path id="link__1499349383931" class="link source-line__1499349256009 target-line__1494592123823 link-animation" d="M514.0384760523592,255.08862303628518 A544,544 0 0,1 690.9615239476408,295.21614571497594 A544,544 0 0,0 690.9615239476408,295.21614571497594" style="fill: none; stroke: rgb(35, 139, 69); stroke-width: 2.5; stroke-dasharray: 2, 3;"></path><path id="link__1499349386668" class="link source-line__1499349256010 target-line__1494592123823 link-animation" d="M514.0384760523592,344.9113769637148 A544,544 0 0,1 690.9615239476408,304.78385428502406 A544,544 0 0,0 690.9615239476408,304.78385428502406" style="fill: none; stroke: rgb(35, 139, 69); stroke-width: 2.5; stroke-dasharray: 2, 3;"></path><text id="link-label__1499349383931" pointer-events="none" text-anchor="middle" class="link-label" style="font-family: &quot;Helvetica Neue&quot;, Helvetica, Arial, sans-serif; fill: rgb(0, 0, 0);" x="602.5" y="255.15238437563056"><tspan x="0" y="0" dy="0em"></tspan></text><text id="link-label__1499349386668" pointer-events="none" text-anchor="middle" class="link-label" style="font-family: &quot;Helvetica Neue&quot;, Helvetica, Arial, sans-serif; fill: rgb(0, 0, 0);" x="602.5" y="304.84761562436944"><tspan x="0" y="0" dy="0em"></tspan></text><image class="link-ok" id="link-ok__1499349383931" width="16" height="16" xmlns:xlink="http://www.w3.org/1999/xlink" xlink:href="img/ok-black.svg" style="pointer-events: none; opacity: 0;" x="602.5" y="255.15238437563056"></image><image class="link-ok" id="link-ok__1499349386668" width="16" height="16" xmlns:xlink="http://www.w3.org/1999/xlink" xlink:href="img/ok-black.svg" style="pointer-events: none; opacity: 0;" x="538.5" y="304.84761562436944"></image><image class="link-settings" id="link-settings__1499349383931" width="16" height="16" xmlns:xlink="http://www.w3.org/1999/xlink" xlink:href="img/settings-black.svg" style="pointer-events: all; opacity: 0.2;" x="634.5" y="255.15238437563056"></image><image class="link-settings" id="link-settings__1499349386668" width="16" height="16" xmlns:xlink="http://www.w3.org/1999/xlink" xlink:href="img/settings-black.svg" style="pointer-events: all; opacity: 0.2;" x="570.5" y="304.84761562436944"></image><image class="link-edittext" id="link-edittext__1499349383931" width="16" height="16" xmlns:xlink="http://www.w3.org/1999/xlink" xlink:href="img/edittext-black.svg" style="pointer-events: all; opacity: 0.2;" x="618.5" y="255.15238437563056"></image><image class="link-edittext" id="link-edittext__1499349386668" width="16" height="16" xmlns:xlink="http://www.w3.org/1999/xlink" xlink:href="img/edittext-black.svg" style="pointer-events: all; opacity: 0.2;" x="554.5" y="304.84761562436944"></image></g><g class="arrow-group"><path class="arrow source-arrow__1499349256009 target-arrow__1494592123823" marker-end="url(#arrow-marker___1499349383931)" style="pointer-events: none; fill: none;" d="M514.0384760523592,254.08862303628518 A544,544 0 0,1 690.9615239476408,296.21614571497594 A544,544 0 0,0 514.0384760523592,254.08862303628518 A544,544 0 0,1 690.9615239476408,296.21614571497594"></path><path class="arrow source-arrow__1499349256010 target-arrow__1494592123823" marker-end="url(#arrow-marker___1499349386668)" style="pointer-events: none; fill: none;" d="M514.0384760523592,345.9113769637148 A544,544 0 0,1 690.9615239476408,303.78385428502406 A544,544 0 0,0 514.0384760523592,345.9113769637148 A544,544 0 0,1 690.9615239476408,303.78385428502406"></path></g><g class="badges-group"></g><path class="link dragline hidden" d="M0,0L0,0" style="pointer-events: none; stroke: rgb(0, 0, 0); fill: rgb(0, 0, 0);"></path></g></svg>